HIERARCHY
ROOT Hips
{
	OFFSET 0.000000 0.000000 0.000000
	CHANNELS 6 Xposition Yposition Zposition Xrotation Yrotation Zrotation
	JOINT Chest
	{
		OFFSET 0.000000 0.009282 11.569106
		CHANNELS 3 Xrotation Yrotation Zrotation
		JOINT Chest2
		{
			OFFSET 0.000000 -0.016863 9.269641
			CHANNELS 3 Xrotation Yrotation Zrotation
			JOINT Chest3
			{
				OFFSET 0.000000 0.000000 8.374491
				CHANNELS 3 Xrotation Yrotation Zrotation
				JOINT Chest4
				{
					OFFSET 0.000000 0.000000 8.374493
					CHANNELS 3 Xrotation Yrotation Zrotation
					JOINT Neck
					{
						OFFSET 0.000000 -0.000001 12.152554
						CHANNELS 3 Xrotation Yrotation Zrotation
						JOINT Head
						{
							OFFSET 0.000000 -0.040100 7.802319
							CHANNELS 3 Xrotation Yrotation Zrotation
							End Site
							{
								OFFSET 0.000000 -0.020946 14.853096
							}
						}
					}
					JOINT RightCollar
					{
						OFFSET -2.894404 0.000000 6.791374
						CHANNELS 3 Xrotation Yrotation Zrotation
						JOINT RightShoulder
						{
							OFFSET -13.574684 0.000000 0.000000
							CHANNELS 3 Xrotation Yrotation Zrotation
							JOINT RightElbow
							{
								OFFSET -23.923903 0.000000 0.000000
								CHANNELS 3 Xrotation Yrotation Zrotation
								JOINT RightWrist
								{
									OFFSET -19.846718 -0.012765 0.000000
									CHANNELS 3 Xrotation Yrotation Zrotation
									End Site
									{
										OFFSET -14.973145 0.000000 0.000000
									}
								}
							}
						}
					}
					JOINT LeftCollar
					{
						OFFSET 2.894404 0.000000 6.791374
						CHANNELS 3 Xrotation Yrotation Zrotation
						JOINT LeftShoulder
						{
							OFFSET 13.574684 0.000000 0.000000
							CHANNELS 3 Xrotation Yrotation Zrotation
							JOINT LeftElbow
							{
								OFFSET 23.923903 0.000000 0.000000
								CHANNELS 3 Xrotation Yrotation Zrotation
								JOINT LeftWrist
								{
									OFFSET 19.846718 -0.012765 0.000000
									CHANNELS 3 Xrotation Yrotation Zrotation
									End Site
									{
										OFFSET 14.973145 0.000000 0.000000
									}
								}
							}
						}
					}
				}
			}
		}
	}
	JOINT RightHip
	{
		OFFSET -9.469263 -0.004642 0.045487
		CHANNELS 3 Xrotation Yrotation Zrotation
		JOINT RightKnee
		{
			OFFSET 0.000000 -0.002666 -40.478676
			CHANNELS 3 Xrotation Yrotation Zrotation
			JOINT RightAnkle
			{
				OFFSET 0.000000 -0.049110 -35.224068
				CHANNELS 3 Xrotation Yrotation Zrotation
				JOINT RightToe
				{
					OFFSET 0.000000 -12.539530 -6.151390
					CHANNELS 3 Xrotation Yrotation Zrotation
					End Site
					{
						OFFSET 0.000000 -5.044995 -1.291870
					}
				}
			}
		}
	}
	JOINT LeftHip
	{
		OFFSET 9.469263 -0.004642 0.045487
		CHANNELS 3 Xrotation Yrotation Zrotation
		JOINT LeftKnee
		{
			OFFSET 0.000000 -0.002666 -40.478676
			CHANNELS 3 Xrotation Yrotation Zrotation
			JOINT LeftAnkle
			{
				OFFSET 0.000000 -0.049110 -35.224068
				CHANNELS 3 Xrotation Yrotation Zrotation
				JOINT LeftToe
				{
					OFFSET 0.000000 -12.539530 -6.151390
					CHANNELS 3 Xrotation Yrotation Zrotation
					End Site
					{
						OFFSET 0.000000 -5.044995 -1.291870
					}
				}
			}
		}
	}
}
MOTION
Frames: 15
Frame Time: 0.016667
73.999390 -72.792496 83.134857 -2.263115 -6.154701 -121.678700 -2.667620 0.287977 1.506266 -1.201643 0.090531 0.563407 -1.201643 0.090531 0.563410 -0.901149 0.069006 0.422376 16.449073 0.154569 1.325750 -5.629455 -0.189662 2.470418 1.520214 -10.549277 -4.829911 54.056723 -47.838484 31.322308 80.394721 -11.498057 82.541292 -14.046077 8.336983 23.208841 0.440331 7.734205 -6.352005 42.928705 47.806956 -19.658574 83.574024 34.167471 -84.738011 -21.839619 -0.966275 -34.084311 -7.578663 -3.587270 -8.116192 4.239064 -2.264309 -9.194304 -5.166559 1.854892 -1.494869 0.362423 -1.561394 0.076473 -4.494018 3.011834 8.810581 1.446534 0.333814 14.021814 -4.295400 -4.617496 2.493029 0.257323 -0.172251 -0.043828 
73.999390 -72.792496 83.134857 -2.263115 -6.154701 -121.678700 -2.667620 0.287977 1.506266 -1.201643 0.090531 0.563407 -1.201643 0.090531 0.563410 -0.901149 0.069006 0.422376 16.449073 0.154569 1.325750 -5.629455 -0.189662 2.470418 1.520214 -10.549277 -4.829911 54.056723 -47.838484 31.322308 80.394721 -11.498057 82.541292 -14.046077 8.336983 23.208841 0.440331 7.734205 -6.352005 42.928705 47.806956 -19.658574 83.574024 34.167471 -84.738011 -21.839619 -0.966275 -34.084311 -7.578663 -3.587270 -8.116192 4.239064 -2.264309 -9.194304 -5.166559 1.854892 -1.494869 0.362423 -1.561394 0.076473 -4.494018 3.011834 8.810581 1.446534 0.333814 14.021814 -4.295400 -4.617496 2.493029 0.257323 -0.172251 -0.043828 
73.609261 -72.758171 83.120384 -2.239953 -6.100692 -120.904006 -2.796838 0.301541 1.254197 -1.282792 0.089034 0.501990 -1.282792 0.089034 0.501985 -0.962021 0.067830 0.376308 16.608312 0.184118 1.275397 -5.334952 -0.115091 2.389219 1.620256 -10.486021 -4.957619 53.802384 -47.865877 31.087609 80.541707 -11.092925 82.734689 -14.116132 8.527956 23.337570 0.705858 7.694727 -6.356177 43.295473 47.600995 -20.360835 83.545453 34.181839 -84.953941 -22.625806 -0.995709 -34.284456 -7.729032 -3.487347 -9.177568 4.347248 -2.373941 -9.902018 -5.212151 2.492871 -1.259966 0.324709 -1.684315 0.001100 -4.214403 3.240525 8.333094 1.419928 0.272892 13.893789 -4.442892 -4.591783 2.449476 0.183788 -0.171320 -0.026873 
73.202339 -72.699089 83.098701 -2.214660 -6.114025 -120.127537 -2.993247 0.284792 1.026513 -1.376370 0.075374 0.438035 -1.376370 0.075374 0.438037 -1.032224 0.057518 0.328358 16.797727 0.217508 1.203934 -4.984659 -0.025795 2.270717 1.758253 -10.412272 -5.034360 53.470269 -47.962196 30.725633 80.609305 -10.599474 82.900164 -14.254338 8.802484 23.488087 0.948873 7.666010 -6.298558 43.757446 47.381651 -21.137429 83.479269 34.131569 -85.110810 -23.378599 -0.987093 -34.582102 -7.658069 -3.443388 -10.432721 4.188196 -2.311283 -9.211251 -4.945825 2.646551 -1.873304 0.089684 -1.459047 -0.022039 -3.963298 3.423122 7.788988 1.383867 0.209771 13.801083 -4.624934 -4.565479 2.436902 0.136184 -0.163190 -0.012241 
72.836113 -72.621246 83.072403 -2.200184 -6.164568 -119.424847 -3.225070 0.237045 0.859898 -1.467274 0.066937 0.383350 -1.467275 0.066938 0.383344 -1.100414 0.051124 0.287356 16.994984 0.242251 1.114531 -4.619769 0.053765 2.116243 1.847235 -10.337019 -5.091573 53.206894 -48.051156 30.342736 80.578337 -10.149527 83.041126 -14.357625 9.086353 23.733654 1.132648 7.629028 -6.196724 44.105410 47.240331 -21.794263 83.494739 34.161475 -85.226663 -23.947847 -0.974639 -34.815353 -7.587364 -3.412996 -11.142814 4.012623 -2.220378 -8.781371 -4.301303 2.406928 -2.376031 -0.416626 -1.033847 -0.018146 -3.765725 3.540452 7.274713 1.363472 0.163633 13.696343 -4.815256 -4.522884 2.407420 0.111731 -0.154029 -0.004473 
72.542145 -72.525078 83.043159 -2.198605 -6.203372 -118.800827 -3.441757 0.183021 0.739053 -1.543804 0.075629 0.338269 -1.543805 0.075629 0.338266 -1.157812 0.057576 0.253516 17.173867 0.246870 1.021018 -4.288578 0.097318 1.947147 1.877964 -10.279159 -5.139666 52.922655 -48.125660 29.935954 80.561016 -9.782102 83.150204 -14.393454 9.349483 24.086551 1.224067 7.624840 -6.130126 44.238169 47.220591 -22.122706 83.616494 34.231925 -85.325735 -24.352780 -1.028029 -34.973581 -7.529096 -3.377175 -11.212013 3.933687 -2.116227 -8.935910 -3.761093 2.203917 -2.832895 -0.794045 -0.781417 -0.014596 -3.609505 3.622783 6.775517 1.365930 0.136420 13.711151 -4.988031 -4.459572 2.335401 0.093787 -0.148787 0.002258 
72.308472 -72.429192 83.015816 -2.214999 -6.122747 -118.237705 -3.577600 0.199828 0.635684 -1.588401 0.098181 0.296507 -1.588402 0.098181 0.296507 -1.191253 0.074408 0.222125 17.323342 0.232799 0.937825 -4.011549 0.102397 1.790378 1.904221 -10.237283 -5.192122 52.600578 -48.182774 29.618747 80.602625 -9.378271 83.196096 -14.425185 9.648880 24.476898 1.207075 7.665741 -6.074542 44.270018 47.266425 -22.167948 83.756007 34.273893 -85.396516 -24.539278 -1.175019 -35.130361 -7.364996 -3.273398 -11.176910 3.871679 -1.999220 -9.401006 -3.390792 2.010159 -3.005847 -0.977417 -0.618899 -0.008497 -3.402286 3.733787 6.296750 1.387257 0.122555 13.756361 -5.119983 -4.390025 2.247486 0.069135 -0.140333 0.007233 
72.114281 -72.332069 82.992714 -2.195907 -5.927201 -117.692711 -3.626039 0.256230 0.527951 -1.601323 0.122509 0.250641 -1.601324 0.122509 0.250642 -1.200942 0.092540 0.187663 17.445522 0.207227 0.866453 -3.784926 0.081780 1.651313 1.935224 -10.211682 -5.236928 52.332527 -48.192742 29.454190 80.604053 -8.785876 83.146919 -14.494496 9.924982 24.799334 1.127496 7.716017 -5.999441 44.273225 47.332787 -22.083509 83.811482 34.247969 -85.372017 -24.520435 -1.317280 -35.288316 -7.011126 -3.125987 -11.369661 3.737630 -1.821178 -9.848780 -3.183521 1.675580 -2.964468 -0.978973 -0.444193 -0.004479 -3.105676 3.850723 5.815975 1.419533 0.107488 13.732285 -5.219132 -4.335732 2.232773 0.042219 -0.123793 0.008258 
71.954758 -72.235176 82.973923 -2.132931 -5.670635 -117.158426 -3.603354 0.319214 0.428981 -1.586352 0.145907 0.207107 -1.586352 0.145907 0.207108 -1.189715 0.109968 0.154951 17.524915 0.172869 0.796097 -3.637613 0.044057 1.511167 1.977198 -10.179536 -5.320264 52.142504 -48.167088 29.467137 80.528586 -7.984372 83.009386 -14.598361 10.221271 25.066989 1.173786 7.669441 -5.952990 44.140244 47.468524 -22.043146 83.779845 34.144952 -85.244265 -24.366912 -1.429198 -35.424824 -6.525958 -2.942594 -11.748443 3.572546 -1.705726 -10.010724 -3.178967 1.304855 -3.002969 -0.827167 -0.255604 -0.000486 -2.761846 3.938432 5.304561 1.463955 0.097489 13.670225 -5.296761 -4.303712 2.331686 0.020704 -0.097426 0.006423 
71.834335 -72.154243 82.992912 -2.008787 -5.454083 -116.644249 -3.563983 0.316390 0.357771 -1.562283 0.168090 0.168741 -1.562283 0.168091 0.168740 -1.171664 0.126500 0.126126 17.579730 0.133961 0.723064 -3.535954 -0.001476 1.364656 2.047602 -10.164109 -5.385417 52.106796 -48.130840 29.624767 80.292398 -7.008145 82.762871 -14.759817 10.645270 25.415134 1.273054 7.588117 -5.943176 44.014565 47.621103 -22.094492 83.650406 33.983487 -85.033710 -24.180693 -1.489736 -35.559727 -5.979262 -2.888440 -12.290566 3.401199 -1.611373 -10.057452 -3.419170 0.924575 -2.967117 -0.562217 -0.052181 -0.005251 -2.458097 3.939563 4.800897 1.512102 0.088717 13.563401 -5.323823 -4.292196 2.447951 -0.015899 -0.066533 0.005664 
71.589714 -72.056564 83.008110 -1.894163 -5.254677 -116.124049 -3.526296 0.303865 0.248478 -1.545648 0.183401 0.136544 -1.545650 0.183401 0.136542 -1.159196 0.137897 0.101945 17.634954 0.110445 0.656734 -3.433625 -0.021317 1.235657 2.163612 -10.140037 -5.411096 52.237557 -48.065626 29.875063 79.916710 -5.995663 82.464822 -14.939538 11.082426 25.801386 1.329566 7.544131 -5.890946 44.014378 47.724557 -22.223079 83.491488 33.832109 -84.823867 -23.983830 -1.527751 -35.660384 -5.560936 -2.898300 -12.959805 3.179123 -1.521089 -10.103101 -3.544286 0.609552 -2.774638 -0.335556 0.146440 -0.035044 -2.068755 3.967517 4.272127 1.521504 0.084565 13.442113 -5.374001 -4.297073 2.597934 -0.095943 -0.037536 0.007134 
71.510979 -72.031059 83.022926 -1.837459 -5.084243 -115.773359 -3.514542 0.316082 0.237040 -1.536486 0.193553 0.120704 -1.536486 0.193553 0.120699 -1.152325 0.145469 0.090040 17.687796 0.098460 0.604069 -3.335717 -0.024870 1.135479 2.279807 -10.110941 -5.408639 52.364345 -48.013283 30.064252 79.588451 -5.141559 82.214174 -15.100227 11.405548 26.134720 1.349568 7.517507 -5.813261 44.008292 47.815750 -22.329079 83.405325 33.676094 -84.661807 -23.838562 -1.559957 -35.679030 -5.054708 -2.857440 -13.451398 2.919995 -1.476035 -10.150437 -3.712499 0.301494 -2.603920 -0.180836 0.270085 -0.034066 -1.851094 4.002557 3.921038 1.523339 0.084472 13.321382 -5.356586 -4.325391 2.632782 -0.124649 -0.013127 0.013751 
71.408142 -71.986580 83.037407 -1.793337 -4.938077 -115.480604 -3.490056 0.324078 0.212425 -1.532422 0.200577 0.115898 -1.532422 0.200577 0.115898 -1.149277 0.150724 0.086426 17.731084 0.097073 0.573595 -3.255519 -0.016734 1.079400 2.387235 -10.065994 -5.419796 52.393787 -47.969723 30.188097 79.441575 -4.584685 82.065454 -15.230929 11.636904 26.385239 1.350114 7.505942 -5.744215 43.913748 47.892839 -22.344657 83.434476 33.574693 -84.590500 -23.708360 -1.578995 -35.605916 -4.775158 -2.835008 -13.798913 2.744922 -1.440072 -10.179834 -3.760348 0.119182 -2.486676 -0.073260 0.336756 -0.048388 -1.635631 4.031274 3.645200 1.522471 0.099189 13.212663 -5.360954 -4.344935 2.695810 -0.157389 -0.001469 0.019729 
71.381020 -71.962990 83.050987 -1.781371 -4.843593 -115.303961 -3.491273 0.338400 0.230025 -1.532270 0.206778 0.117922 -1.532270 0.206778 0.117912 -1.149162 0.155380 0.087922 17.765961 0.103811 0.568665 -3.190808 -0.002490 1.072670 2.469255 -10.025900 -5.426126 52.369441 -47.935374 30.282747 79.449245 -4.358708 82.002145 -15.308030 11.782874 26.555524 1.350034 7.490710 -5.678707 43.798192 47.946972 -22.344098 83.517176 33.531666 -84.571443 -23.602793 -1.562965 -35.457745 -4.548351 -2.807951 -13.889386 2.634664 -1.432876 -10.222160 -3.838610 0.007280 -2.521559 -0.018239 0.338359 -0.043085 -1.524000 4.038077 3.502741 1.510673 0.130237 13.151018 -5.338587 -4.355468 2.699402 -0.170925 -0.000563 0.025426 
71.370125 -71.934784 83.062431 -1.770411 -4.752401 -115.203407 -3.472440 0.359491 0.248033 -1.529126 0.211958 0.126938 -1.529126 0.211958 0.126936 -1.146799 0.159287 0.094673 17.789829 0.115916 0.585903 -3.146488 0.013975 1.108189 2.536329 -9.986558 -5.456329 52.405675 -47.867035 30.444796 79.513579 -4.390180 81.993177 -15.354769 11.849815 26.677049 1.329389 7.483764 -5.645545 43.695155 47.974549 -22.313238 83.624759 33.529341 -84.605984 -23.531836 -1.544393 -35.271411 -4.442486 -2.777693 -13.785856 2.598144 -1.464995 -10.309940 -3.870621 -0.003643 -2.618129 0.014977 0.310450 -0.045083 -1.415259 4.033817 3.439433 1.486403 0.165934 13.152197 -5.319854 -4.349742 2.622281 -0.175728 -0.007043 0.028998 
